<svg width="78" height="82" viewBox="0 0 78 82" fill="none" xmlns="http://www.w3.org/2000/svg">
<g clip-path="url(#clip0_2_11)">
<path d="M29.88 1.96364L30.6176 5.61477L32.76 7.85455L37.56 10.3091L41.681 14.4818L46.598 23.8705L49.5483 33.2591L49.08 42.7091L48.12 48.1091L48.6 49.0909L50.04 49.5818L50.52 52.0364L48.6 53.0182L39 53.5091L27.96 53.0182V49.5818H29.88V52.0364V1.96364Z" fill="#FCA311"/>
<path d="M50.44 48.6H48.9095L49.5599 45.54C50.1759 42.84 50.4399 40.14 50.4399 37.3501C50.4399 35.1901 50.1759 33.0301 49.8239 30.96C48.1519 21.9601 43.7519 14.22 37.4159 9.18C35.6318 7.77009 33.4735 6.59021 31.0799 5.70934V0.899965C31.0799 0.359965 30.7279 0 30.1999 0C29.6719 0 29.32 0.359965 29.32 0.899965V6.29996V48.6H27.5599C27.0319 48.6 26.68 48.96 26.68 49.5V53.0999C26.68 53.6399 27.0319 53.9999 27.5599 53.9999H50.44C50.968 53.9999 51.3199 53.6399 51.3199 53.0999V49.5C51.32 48.96 50.968 48.6 50.44 48.6ZM31.08 7.56C33.104 8.37 34.864 9.36003 36.36 10.53C42.344 15.3 46.568 22.59 48.152 31.23C48.504 33.3001 48.68 35.28 48.68 37.3501C48.68 39.9601 48.3281 42.6601 47.8001 45.1801L47.096 48.6001H44.4883L45.512 43.2901C45.6693 42.4857 45.7895 41.6807 45.8765 40.8683C45.9245 40.7587 45.952 40.635 45.952 40.5001C45.952 40.4266 45.9449 40.3568 45.9323 40.2903C46.0027 39.4727 46.0399 38.6456 46.0399 37.8001C46.0399 35.9101 45.7759 33.0301 45.424 31.3201C45.135 29.762 44.7435 28.2445 44.2577 26.7786C44.2415 26.6984 44.217 26.6234 44.1836 26.5552C43.0445 23.1966 41.4055 20.1163 39.352 17.46C39.1759 17.19 38.9119 17.1001 38.6479 17.1001H34.6C34.072 17.1001 33.72 17.46 33.72 18V48.6H31.08V7.56ZM43.8596 32.4C43.9704 33.2037 44.0747 34.155 44.1516 35.1H35.48V32.4H43.8596ZM44.28 37.8C44.28 38.4094 44.2581 39.0078 44.2178 39.6H35.48V36.9H44.2618C44.2736 37.2169 44.28 37.5193 44.28 37.8ZM35.48 41.4H44.0303C43.9543 41.9417 43.863 42.481 43.752 43.02L43.5476 44.1H35.48V41.4ZM35.48 30.6V27.9H42.7575C43.0436 28.783 43.2964 29.6839 43.5129 30.6H35.48ZM35.48 26.1V23.4H40.931C41.3632 24.2732 41.7587 25.175 42.1174 26.1H35.48ZM35.48 21.6V18.9H38.208C38.8356 19.7558 39.422 20.6587 39.9665 21.6H35.48ZM35.48 45.9H43.207L42.696 48.6H35.48V45.9ZM49.56 52.2H28.44V50.3999H30.2H34.6001H43.4H47.8001H49.56V52.2Z" fill="black"/>
</g>
<path d="M5.46 81.154C4.452 81.154 3.57933 80.93 2.842 80.482C2.114 80.034 1.55867 79.418 1.176 78.634C0.793333 77.8407 0.602 76.9447 0.602 75.946C0.602 74.798 0.826 73.8133 1.274 72.992C1.73133 72.1707 2.36133 71.55 3.164 71.13C3.96667 70.7007 4.88133 70.486 5.908 70.486C6.85067 70.486 7.938 70.6307 9.17 70.92L9.044 73.342H8.05L7.714 71.662C7.58333 71.5593 7.35933 71.4613 7.042 71.368C6.734 71.2747 6.31867 71.228 5.796 71.228C5.11467 71.228 4.51267 71.396 3.99 71.732C3.46733 72.068 3.05667 72.5673 2.758 73.23C2.46867 73.8927 2.324 74.6953 2.324 75.638C2.324 76.506 2.44067 77.2993 2.674 78.018C2.91667 78.7367 3.28067 79.3153 3.766 79.754C4.26067 80.1833 4.86267 80.398 5.572 80.398C6.02 80.398 6.44467 80.3467 6.846 80.244C7.24733 80.132 7.55533 79.9873 7.77 79.81V76.688L6.006 76.548V75.722H10.094V76.548L9.282 76.674V80.44C9.07667 80.4493 8.736 80.5287 8.26 80.678C7.77467 80.8273 7.31733 80.944 6.888 81.028C6.45867 81.112 5.98267 81.154 5.46 81.154ZM12.1973 71.466L11.0633 71.298V70.598H15.0813V71.298L13.6953 71.466V80.174L17.3073 80.048L18.1333 77.696L18.9873 77.822L18.4973 81H11.0353V80.314L12.1973 80.174V71.466ZM21.0423 71.466L19.8943 71.298V70.598H27.0203L27.2163 72.768H26.4183L26.0123 71.41L22.5403 71.326V75.274L24.8783 75.232L25.0743 74.07H25.8443V77.29H25.0743L24.8783 76.086L22.5403 76.044V80.216L26.4883 80.076L27.2303 78.312L28.0563 78.564L27.6503 81H19.8803V80.314L21.0423 80.174V71.466ZM30.1755 71.466L29.0555 71.298V70.598H31.6595L36.3215 77.43L37.1055 78.914V71.466L35.8875 71.298V70.598H39.1915V71.298L38.0715 71.466V81H36.9655L32.2055 74.014L31.1275 72.166V80.174L32.4575 80.314V81H29.0555V80.314L30.1755 80.16V71.466ZM41.3451 71.466L40.2531 71.298V70.598H42.0871C42.3764 70.598 42.7917 70.5793 43.3331 70.542C43.8744 70.5047 44.2804 70.486 44.5511 70.486C46.2871 70.486 47.5751 70.9247 48.4151 71.802C49.2644 72.67 49.6891 73.8927 49.6891 75.47C49.6891 76.5713 49.4697 77.5513 49.0311 78.41C48.6017 79.2593 47.9951 79.922 47.2111 80.398C46.4271 80.874 45.5264 81.112 44.5091 81.112C44.2851 81.112 43.9024 81.0933 43.3611 81.056C42.8011 81.0187 42.3811 81 42.1011 81H40.1831V80.314L41.3451 80.174V71.466ZM42.8291 80.216C43.1557 80.2907 43.5757 80.328 44.0891 80.328H44.5091C45.2091 80.3187 45.8251 80.1413 46.3571 79.796C46.8984 79.4507 47.3184 78.9373 47.6171 78.256C47.9157 77.5653 48.0651 76.73 48.0651 75.75C48.0651 74.2753 47.7431 73.1553 47.0991 72.39C46.4644 71.6247 45.5031 71.242 44.2151 71.242C43.9444 71.242 43.6224 71.2607 43.2491 71.298C43.0904 71.326 42.9504 71.34 42.8291 71.34V80.216ZM54.2084 70.514H55.7484L59.1504 80.174L60.0184 80.314V81H56.3224V80.314L57.4844 80.174L56.8264 78.102H52.7384L52.0804 80.174L53.2844 80.314V81H49.9664V80.314L50.8344 80.174L54.2084 70.514ZM55.0904 72.754L54.7404 71.522L54.4044 72.782L52.9904 77.276H56.5604L55.0904 72.754ZM61.6758 71.466L60.5418 71.298V70.598H64.5598V71.298L63.1738 71.466V80.174L66.7858 80.048L67.6118 77.696L68.4658 77.822L67.9758 81H60.5138V80.314L61.6758 80.174V71.466ZM70.5208 71.466L69.3728 71.298V70.598H76.4988L76.6948 72.768H75.8968L75.4908 71.41L72.0188 71.326V75.274L74.3568 75.232L74.5528 74.07H75.3228V77.29H74.5528L74.3568 76.086L72.0188 76.044V80.216L75.9668 80.076L76.7088 78.312L77.5348 78.564L77.1288 81H69.3588V80.314L70.5208 80.174V71.466Z" fill="white"/>
<path d="M17.878 59.313L17.914 61.572H17.419L17.185 59.772L15.007 59.718V65.523L16.627 65.622V66H13.252V65.622L14.251 65.523V59.808L13.288 59.691V59.313H17.878ZM18.4939 63.471C18.4939 62.949 18.6019 62.49 18.8179 62.094C19.0399 61.698 19.3279 61.395 19.6819 61.185C20.0419 60.975 20.4169 60.87 20.8069 60.87C21.5629 60.87 22.1209 61.116 22.4809 61.608C22.8469 62.1 23.0299 62.73 23.0299 63.498C23.0299 64.02 22.9189 64.479 22.6969 64.875C22.4809 65.271 22.1929 65.574 21.8329 65.784C21.4789 65.994 21.1069 66.099 20.7169 66.099C19.9609 66.099 19.3999 65.853 19.0339 65.361C18.6739 64.869 18.4939 64.239 18.4939 63.471ZM20.7619 65.631C21.2239 65.631 21.5809 65.454 21.8329 65.1C22.0849 64.746 22.2109 64.23 22.2109 63.552C22.2109 62.904 22.0939 62.373 21.8599 61.959C21.6259 61.545 21.2629 61.338 20.7709 61.338C20.3089 61.338 19.9489 61.515 19.6909 61.869C19.4389 62.223 19.3129 62.739 19.3129 63.417C19.3129 64.071 19.4299 64.605 19.6639 65.019C19.9039 65.427 20.2699 65.631 20.7619 65.631ZM23.7474 63.534C23.7474 63.048 23.8404 62.604 24.0264 62.202C24.2184 61.794 24.5004 61.47 24.8724 61.23C25.2504 60.99 25.7094 60.87 26.2494 60.87C26.4834 60.87 26.7114 60.9 26.9334 60.96C27.1554 61.014 27.3474 61.074 27.5094 61.14L27.4734 62.427H27.0234L26.8344 61.563C26.7984 61.383 26.5404 61.293 26.0604 61.293C25.5924 61.293 25.2174 61.473 24.9354 61.833C24.6594 62.193 24.5214 62.685 24.5214 63.309C24.5214 64.053 24.6714 64.617 24.9714 65.001C25.2714 65.385 25.6614 65.577 26.1414 65.577C26.3934 65.577 26.6364 65.535 26.8704 65.451C27.1104 65.367 27.3084 65.271 27.4644 65.163L27.6084 65.46C27.4344 65.634 27.1944 65.784 26.8884 65.91C26.5824 66.036 26.2794 66.099 25.9794 66.099C25.5054 66.099 25.1004 65.988 24.7644 65.766C24.4284 65.538 24.1734 65.232 23.9994 64.848C23.8314 64.458 23.7474 64.02 23.7474 63.534ZM33.1505 61.005L33.1955 62.814H32.7095L32.4935 61.5L31.1345 61.464V65.532L32.3855 65.613V66H29.1725V65.613L30.4235 65.532V61.464L29.0645 61.5L28.8395 62.814H28.3625L28.3985 61.005H33.1505ZM36.159 61.005V61.392L35.385 61.527V64.731L35.952 63.984L38.166 61.653V61.527L37.464 61.392V61.005H39.561V61.392L38.886 61.527V65.541L39.588 65.613V66H37.419V65.613L38.166 65.541V62.292L37.527 63.165L35.385 65.379V65.541L35.979 65.613V66H33.963V65.613L34.674 65.541V61.527L33.981 61.392V61.005H36.159ZM42.6638 61.005V61.392L41.8628 61.527V63.174H44.5718V61.527L43.7618 61.392V61.005H45.9578V61.392L45.2828 61.527V65.541L46.0028 65.613V66H43.7348V65.613L44.5718 65.541V63.642H41.8628V65.541L42.6998 65.613V66H40.4318V65.613L41.1518 65.541V61.527L40.4498 61.392V61.005H42.6638ZM49.0438 61.005V61.392L48.2698 61.527V64.731L48.8368 63.984L51.0508 61.653V61.527L50.3488 61.392V61.005H52.4458V61.392L51.7708 61.527V65.541L52.4728 65.613V66H50.3038V65.613L51.0508 65.541V62.292L50.4118 63.165L48.2698 65.379V65.541L48.8638 65.613V66H46.8478V65.613L47.5588 65.541V61.527L46.8658 61.392V61.005H49.0438ZM58.7076 67.62H58.2126C58.2066 67.404 58.1946 67.119 58.1766 66.765C58.1646 66.411 58.1526 66.156 58.1406 66H53.3616V65.613L54.0366 65.532V61.518L53.3796 61.392V61.005H55.5216V61.392L54.7476 61.518V65.532H57.1686V61.527L56.3946 61.392V61.005H58.5456V61.392L57.8796 61.527V65.532H58.9506L58.7076 67.62ZM59.5049 64.686C59.5049 64.104 59.7929 63.684 60.3689 63.426C60.9449 63.162 61.6619 63.021 62.5199 63.003V62.724C62.5199 62.418 62.4869 62.178 62.4209 62.004C62.3609 61.824 62.2529 61.695 62.0969 61.617C61.9409 61.533 61.7219 61.491 61.4399 61.491C61.1339 61.491 60.8549 61.539 60.6029 61.635C60.3569 61.725 60.1169 61.836 59.8829 61.968L59.6849 61.572C59.7509 61.512 59.8889 61.428 60.0989 61.32C60.3089 61.212 60.5489 61.116 60.8189 61.032C61.0889 60.948 61.3499 60.906 61.6019 60.906C62.0099 60.906 62.3309 60.963 62.5649 61.077C62.8049 61.191 62.9759 61.374 63.0779 61.626C63.1859 61.878 63.2399 62.217 63.2399 62.643V65.613H63.7979V65.946C63.4679 66.036 63.1889 66.081 62.9609 66.081C62.8169 66.081 62.7179 66.057 62.6639 66.009C62.6099 65.967 62.5829 65.865 62.5829 65.703V65.37C62.3669 65.562 62.1299 65.733 61.8719 65.883C61.6199 66.027 61.3319 66.099 61.0079 66.099C60.5759 66.099 60.2159 65.979 59.9279 65.739C59.6459 65.499 59.5049 65.148 59.5049 64.686ZM61.2779 65.568C61.4459 65.568 61.6469 65.514 61.8809 65.406C62.1149 65.298 62.3279 65.169 62.5199 65.019V63.426C61.7939 63.432 61.2419 63.54 60.8639 63.75C60.4919 63.96 60.3059 64.242 60.3059 64.596C60.3059 64.938 60.3929 65.187 60.5669 65.343C60.7409 65.493 60.9779 65.568 61.2779 65.568Z" fill="#F6F6F6"/>
<defs>
<clipPath id="clip0_2_11">
<rect width="24" height="54" fill="white" transform="translate(27)"/>
</clipPath>
</defs>
</svg>
