<svg width="19" height="19" viewBox="0 0 19 19" fill="none" xmlns="http://www.w3.org/2000/svg">
<path d="M13.5913 13.5913C11.123 16.0596 7.12038 16.0596 4.65206 13.5913C2.18373 11.123 2.18373 7.12038 4.65206 4.65206C7.12038 2.18373 11.123 2.18373 13.5913 4.65206C16.0596 7.12038 16.0596 11.123 13.5913 13.5913ZM5.49034 5.49034C3.48448 7.49619 3.48448 10.7472 5.49034 12.753C7.49619 14.7589 10.7472 14.7589 12.753 12.753C14.7589 10.7472 14.7589 7.49619 12.753 5.49034C10.7472 3.48448 7.49619 3.48448 5.49034 5.49034ZM12.1464 6.88687V11.3565C12.1464 11.7925 11.7925 12.1464 11.3565 12.1464C10.9205 12.1464 10.5666 11.7925 10.5666 11.3565L10.5656 8.79421L7.44511 11.9147C7.1368 12.223 6.63602 12.224 6.3268 11.9147C6.01757 11.6055 6.01757 11.1056 6.3268 10.7964L9.44732 7.67589L6.88596 7.67589C6.44994 7.67589 6.09602 7.32197 6.09602 6.88595C6.09693 6.66795 6.1845 6.47092 6.32771 6.32771C6.47092 6.1845 6.66886 6.09602 6.88595 6.09602L11.3556 6.09602C11.7925 6.09693 12.1464 6.45085 12.1464 6.88687Z" fill="#C3C3C3"/>
</svg>
