<svg width="111" height="111" viewBox="0 0 111 111" fill="none" xmlns="http://www.w3.org/2000/svg">
<circle cx="55.5" cy="18.5" r="17.5" transform="rotate(180 55.5 18.5)" stroke="#DB7C00" stroke-width="2"/>
<circle cx="55.5" cy="92.5" r="17.5" transform="rotate(180 55.5 92.5)" stroke="#DB7C00" stroke-width="2"/>
<circle cx="92.5" cy="55.5" r="17.5" transform="rotate(180 92.5 55.5)" stroke="#DB7C00" stroke-width="2"/>
<circle cx="18.5" cy="54.8509" r="17.5" transform="rotate(180 18.5 54.8509)" stroke="#DB7C00" stroke-width="2"/>
<circle cx="29.5351" cy="81.4649" r="17.5" transform="rotate(180 29.5351 81.4649)" stroke="#DB7C00" stroke-width="2"/>
<circle cx="29.5351" cy="28.886" r="17.5" transform="rotate(180 29.5351 28.886)" stroke="#DB7C00" stroke-width="2"/>
<circle cx="81.4649" cy="28.886" r="17.5" transform="rotate(180 81.4649 28.886)" stroke="#DB7C00" stroke-width="2"/>
<circle cx="80.8158" cy="82.114" r="17.5" transform="rotate(180 80.8158 82.114)" stroke="#DB7C00" stroke-width="2"/>
<path d="M13.4609 62V60.7188L14.6875 60.4844V52.1484L13.4609 51.9141V50.625H17.9922V51.9141L16.8125 52.1484V55.375H17.8828L20.1094 52.1719C20.5573 51.5469 20.9661 51.1172 21.3359 50.8828C21.7057 50.6432 22.1198 50.5234 22.5781 50.5234C22.8594 50.5234 23.1094 50.5573 23.3281 50.625C23.5469 50.6927 23.7526 50.7865 23.9453 50.9062L23.5938 52.4922C23.474 52.4609 23.3672 52.4375 23.2734 52.4219C23.1849 52.4062 23.0938 52.3984 23 52.3984C22.7708 52.3984 22.5521 52.4661 22.3438 52.6016C22.1354 52.7318 21.8958 52.9766 21.625 53.3359L19.7031 55.9766L22.9844 60.5234L24.1562 60.7188V62H19.8125V60.7188L20.5078 60.6172L20.4844 60.5859L18.1719 57.2812H16.8125V60.4844L17.9922 60.7188V62H13.4609ZM24.7891 62V60.7188L25.6094 60.6016L29.3047 50.625H31.4219L35.0859 60.6016L35.8984 60.7188V62H32.1562V60.7188L32.9609 60.5703L32.4062 58.8984H28.2891L27.7344 60.5703L28.5312 60.7188V62H24.7891ZM28.8125 57.2969H31.8828L30.4844 53.25L30.375 52.9219H30.3281L30.2109 53.2656L28.8125 57.2969ZM36.7969 62V60.3672H37.1016C37.4557 60.3464 37.75 60.2578 37.9844 60.1016C38.2188 59.9401 38.4036 59.6901 38.5391 59.3516C38.6745 59.0078 38.776 58.5521 38.8438 57.9844C38.9115 57.4115 38.9505 56.6979 38.9609 55.8438L39.0312 52.1484L37.8359 51.9141V50.625H47.8516V51.9141L46.625 52.1484V60.4844L47.8516 60.7188V62H43.2812V60.7188L44.5078 60.4844V52.2656H41.1484L41.0859 55.8438C41.0651 56.9375 40.9766 57.875 40.8203 58.6562C40.6693 59.4375 40.4401 60.0755 40.1328 60.5703C39.8307 61.0599 39.4479 61.4219 38.9844 61.6562C38.5208 61.8854 37.9688 62 37.3281 62H36.7969ZM48.8438 62V60.7188L50.0703 60.4844V52.1484L48.8438 51.9141V50.625H53.4219V51.9141L52.1953 52.1484V54.9297H54.3281C55.1927 54.9297 55.9375 55.0755 56.5625 55.3672C57.1875 55.6536 57.6667 56.0573 58 56.5781C58.3385 57.099 58.5078 57.7135 58.5078 58.4219C58.5078 59.1354 58.3385 59.763 58 60.3047C57.6615 60.8411 57.1797 61.2578 56.5547 61.5547C55.9297 61.8516 55.1875 62 54.3281 62H48.8438ZM52.1953 60.3672H54.3281C54.9948 60.3672 55.5052 60.1823 55.8594 59.8125C56.2135 59.4427 56.3906 58.974 56.3906 58.4062C56.3906 57.8646 56.2161 57.4245 55.8672 57.0859C55.5182 56.7422 55.0052 56.5703 54.3281 56.5703H52.1953V60.3672ZM59.4375 62V60.7188L60.6562 60.4844V52.1484L59.4375 51.9141V50.625H60.6562H63.7578L66.9766 58.7031H67.0234L70.1406 50.625H74.4844V51.9141L73.2578 52.1484V60.4844L74.4844 60.7188V62H69.9062V60.7188L71.1953 60.4844V58.0703L71.2266 53.0156L71.1875 53.0078L67.7188 61.7891H66.1484L62.5938 53.0625L62.5469 53.0703L62.6719 57.8828V60.4844L64.0156 60.7188V62H59.4375ZM74.7109 62V60.7188L75.5312 60.6016L79.2266 50.625H81.3438L85.0078 60.6016L85.8203 60.7188V62H82.0781V60.7188L82.8828 60.5703L82.3281 58.8984H78.2109L77.6562 60.5703L78.4531 60.7188V62H74.7109ZM78.7344 57.2969H81.8047L80.4062 53.25L80.2969 52.9219H80.25L80.1328 53.2656L78.7344 57.2969ZM86.6641 62V60.7188L87.8906 60.4844V52.1484L86.6641 51.9141V50.625H87.8906H92.0391C92.8984 50.625 93.6354 50.776 94.25 51.0781C94.8698 51.375 95.3464 51.7943 95.6797 52.3359C96.013 52.8724 96.1797 53.4974 96.1797 54.2109C96.1797 54.9297 96.013 55.5573 95.6797 56.0938C95.3464 56.625 94.8698 57.0391 94.25 57.3359C93.6354 57.6328 92.8984 57.7812 92.0391 57.7812H90.0156V60.4844L91.2422 60.7188V62H86.6641ZM90.0156 56.1406H92.0391C92.7057 56.1406 93.2083 55.9609 93.5469 55.6016C93.8854 55.2422 94.0547 54.7839 94.0547 54.2266C94.0547 53.6641 93.8854 53.1979 93.5469 52.8281C93.2083 52.4531 92.7057 52.2656 92.0391 52.2656H90.0156V56.1406Z" fill="white"/>
</svg>
