<svg width="20" height="20" viewBox="0 0 20 20" fill="none" xmlns="http://www.w3.org/2000/svg">
<path d="M9.99996 1.66666C5.40745 1.66666 1.66663 5.40749 1.66663 9.99999C1.66663 14.5925 5.40745 18.3333 9.99996 18.3333C14.5925 18.3333 18.3333 14.5925 18.3333 9.99999C18.3333 5.40749 14.5925 1.66666 9.99996 1.66666ZM9.99996 3.33332C13.6917 3.33332 16.6666 6.30822 16.6666 9.99999C16.6666 13.6918 13.6917 16.6667 9.99996 16.6667C6.30819 16.6667 3.33329 13.6918 3.33329 9.99999C3.33329 6.30822 6.30819 3.33332 9.99996 3.33332ZM5.37105 7.08332C5.05355 7.08332 4.99996 7.23892 4.99996 7.40559C4.99996 7.70642 5.24954 9.33041 6.61454 11.1979C7.60371 12.5529 8.90764 13.3333 10.0618 13.3333C10.761 13.3333 10.8333 13.1551 10.8333 12.8776V11.639C10.8333 11.3048 10.9103 11.25 11.1328 11.25C11.2919 11.25 11.6145 11.3542 12.2395 12.0833C12.9604 12.9242 13.0909 13.3333 13.5042 13.3333H14.5963C14.8496 13.3333 14.9958 13.2275 15.0016 13.0208C15.0024 12.9683 14.9947 12.9084 14.9772 12.8434C14.8963 12.6034 14.5266 12.0175 14.0641 11.4583C13.8074 11.1483 13.5549 10.8413 13.4391 10.6754C13.3599 10.5663 13.33 10.49 13.3333 10.4167C13.3366 10.34 13.3766 10.2652 13.4375 10.1627C13.4266 10.1627 14.8364 8.18456 14.9739 7.51789C14.9931 7.45456 15.0025 7.39541 15 7.34374C14.9933 7.19291 14.8893 7.08332 14.6451 7.08332H13.5546C13.2796 7.08332 13.1519 7.24948 13.0778 7.41698C13.0778 7.41698 12.3987 8.81624 11.6145 9.73957C11.3604 10.0062 11.2312 9.99999 11.0937 9.99999C11.0204 9.99999 10.8333 9.91133 10.8333 9.66633V7.5065C10.8333 7.21733 10.7623 7.08332 10.5289 7.08332H8.59208C8.42208 7.08332 8.33329 7.21608 8.33329 7.35025C8.33329 7.62775 8.70746 7.69576 8.74996 8.47492V9.98371C8.74996 10.3504 8.68726 10.4167 8.54976 10.4167C8.17893 10.4167 7.44876 9.16599 6.95959 7.52766C6.85376 7.20516 6.74794 7.08332 6.47294 7.08332H5.37105Z" fill="white"/>
</svg>
